# xmcd
#
# Track frame offsets:
#	150
#	16632
#	36830
#	52687
#	72367
#	89997
#	107195
#	120692
#	138807
#	153560
#	170190
#	187957
#
# Disc length: 2773 seconds
#
# Revision: 0
# Processed by: cddbd v1.4PL0 Copyright (c) Steve Scherf et al.
# Submitted via: EasyCDDAExtractor 4.5.0.2
#
DISCID=a00ad30c
DTITLE=鄭秀文 - 很愛很愛
DYEAR=1900
DGENRE=
TTITLE0=發熱發亮
TTITLE1=插曲
TTITLE2=宿命主義
TTITLE3=很發很愛你
TTITLE4=月亮星座
TTITLE5=旋風
TTITLE6=另類男女
TTITLE7=兩個只能愛一個
TTITLE8=Touch
TTITLE9=甜
TTITLE10=不可多得
TTITLE11=插曲(國語版)
EXTD=
EXTT0=
EXTT1=
EXTT2=
EXTT3=
EXTT4=
EXTT5=
EXTT6=
EXTT7=
EXTT8=
EXTT9=
EXTT10=
EXTT11=
PLAYORDER=
